<?xml version="1.0" encoding="utf-8"?>
<!-- Uploaded to: SVG Repo, www.svgrepo.com, Generator: SVG Repo Mixer Tools -->
<svg fill="#000000" width="800px" height="800px" viewBox="0 0 32 32" version="1.1" xmlns="http://www.w3.org/2000/svg">
<title>chrome</title>
<path d="M21.25 11.031h-10.063c-0.969 0-1.844 0.313-2.625 0.781-1.344 0.844-2.25 2.344-2.313 4.031l-3.875-6.719c2.063-2.625 5.219-4.344 8.813-4.344 4.406 0 8.25 2.563 10.063 6.25zM1.875 9.75l5 8.688c0.031 0.031 0.031 0.063 0.063 0.094 0.438 0.781 1.125 1.406 1.938 1.844 0.719 0.344 1.469 0.594 2.313 0.594s1.625-0.25 2.344-0.594l-3.906 6.719c-5.438-0.781-9.625-5.438-9.625-11.094 0-2.313 0.688-4.469 1.875-6.25zM13.813 11.813h7.781c0.5 1.281 0.813 2.719 0.813 4.188 0 6.188-5.031 11.188-11.219 11.188-0.25 0-0.469 0-0.719-0.031l5-8.625c0.031-0.031 0.031-0.063 0.063-0.094 0.406-0.75 0.625-1.563 0.625-2.438v-0.156c-0.063-1.688-1-3.188-2.344-4.031zM7.469 16c0-2.094 1.625-3.75 3.719-3.75s3.75 1.656 3.75 3.75-1.656 3.75-3.75 3.75-3.719-1.656-3.719-3.75z"></path>
</svg>