<?xml version="1.0" encoding="UTF-8"?><svg id="Logo_Blueprint_copy" xmlns="http://www.w3.org/2000/svg" viewBox="0 0 1084 1084"><defs><style>.cls-1{fill:#fdc300;}</style></defs><path class="cls-1" d="m714.82,400.32c0,25.99-21.16,47.2-47.2,47.2s-47.07-21.22-47.07-47.2,21.09-47.1,47.07-47.1,47.2,21.13,47.2,47.1"/><polygon class="cls-1" points="591.98 305.69 497.26 305.69 383.62 731.89 705.67 731.89 730.93 637.18 504.6 637.18 591.98 305.69"/><path class="cls-1" d="m544.39,163.66c-209.4,0-379.16,169.76-379.16,379.15s169.76,379.18,379.16,379.18,379.16-169.76,379.16-379.18-169.77-379.15-379.16-379.15Zm0,663.12c-156.82,0-283.96-127.12-283.96-283.95s127.14-283.95,283.96-283.95,283.96,127.13,283.96,283.95-127.14,283.95-283.96,283.95Z"/></svg>